<svg xmlns="http://www.w3.org/2000/svg" xmlns:xlink="http://www.w3.org/1999/xlink" preserveAspectRatio="xMidYMid meet" width="100" height="100" viewBox="0 0 100 100" style="width:100%;height:100%"><defs><animate attributeType="XML" attributeName="opacity" dur="2s" from="0" to="1" xlink:href="#time_group"/></defs><g id="_R_G"><g id="_R_G_L_1_G"><g id="_R_G_L_1_G_L_5_G" transform=" translate(48.5, 56.5) translate(-22.5, -33.5)"><path id="_R_G_L_1_G_L_5_G_D_0_P_0" stroke="#056dff" stroke-linecap="round" stroke-linejoin="round" fill="none" stroke-width="4" stroke-opacity="1"
d=" M23 10 C23,10 35,22 35,22 C35,22 35,32 35,32 C35,32 10,57 10,57 "/>
</g>
<g id="_R_G_L_1_G_L_4_G" transform=" translate(58.25, 54.5) translate(-21.75, -38)">
<path id="_R_G_L_1_G_L_4_G_D_0_P_0" stroke="#056dff" stroke-linecap="round" stroke-linejoin="round" fill="none" stroke-width="4" stroke-opacity="1" d=" M19 10 C19,10 33.5,24.5 33.5,24.5 C33.5,24.5 33.5,42.5 33.5,42.5 C33.5,42.5 10,66 10,66 "/>
</g>
<g id="_R_G_L_1_G_L_3_G" transform=" translate(68, 52.5) translate(-21, -42.5)"><path id="_R_G_L_1_G_L_3_G_D_0_P_0" stroke="#056dff" stroke-linecap="round" stroke-linejoin="round" fill="none" stroke-width="4" stroke-opacity="1" d=" M15 10 C15,10 32,27 32,27 C32,27 32,53 32,53 C32,53 10,75 10,75 "/></g><g id="_R_G_L_1_G_L_2_G" transform=" translate(51.5, 43.5) translate(-22.5, -33.5)"><path id="_R_G_L_1_G_L_2_G_D_0_P_0" stroke="#056dff" stroke-linecap="round" stroke-linejoin="round" fill="none" stroke-width="4" stroke-opacity="1" d=" M22 57 C22,57 10,45 10,45 C10,45 10,35 10,35 C10,35 35,10 35,10 "/></g><g id="_R_G_L_1_G_L_1_G" transform=" translate(41.75, 45.5) translate(-21.75, -38)"><path id="_R_G_L_1_G_L_1_G_D_0_P_0" stroke="#056dff" stroke-linecap="round" stroke-linejoin="round" fill="none" stroke-width="4" stroke-opacity="1" d=" M24.5 66 C24.5,66 10,51.5 10,51.5 C10,51.5 10,33.5 10,33.5 C10,33.5 33.5,10 33.5,10 "/></g><g id="_R_G_L_1_G_L_0_G" transform=" translate(32, 47.5) translate(-21, -42.5)"><path id="_R_G_L_1_G_L_0_G_D_0_P_0" stroke="#056dff" stroke-linecap="round" stroke-linejoin="round" fill="none" stroke-width="4" stroke-opacity="1" d=" M27 75 C27,75 10,58 10,58 C10,58 10,32 10,32 C10,32 32,10 32,10 "/></g></g><g id="_R_G_L_0_G" transform=" translate(50, 50) translate(-31.25, -31.25)"><path id="_R_G_L_0_G_D_0_P_0" fill="#000000" fill-opacity="1" fill-rule="nonzero" d=" M0.25 0.25 C0.25,0.25 62.25,0.25 62.25,0.25 C62.25,0.25 62.25,62.25 62.25,62.25 C62.25,62.25 0.25,62.25 0.25,62.25 C0.25,62.25 0.25,0.25 0.25,0.25z "/></g></g><g id="time_group"/></svg>
