<svg xmlns="http://www.w3.org/2000/svg" viewBox="0 0 100 100">
    <defs>
        <linearGradient
            id="lineGradient"
            x1="14.25"
            y1="37"
            x2="59.75"
            y2="37"
            gradientUnits="userSpaceOnUse"
        >
            <stop offset="0" stop-color="#00d2e5" />
            <stop offset="1" stop-color="#056dff" />
        </linearGradient>
        <clipPath id="centerClip">
            <rect x="0" y="20" width="100" height="60" />
        </clipPath>

        <mask id="lineMask">
            <rect width="100" height="100" fill="black" />
            <g
                fill="none"
                stroke="white"
                stroke-width="4"
                class="animated-lines"
            >
                <g transform="translate(48.5, 56.5) translate(-22.5, -33.5)">
                    <path
                        class="path"
                        d="M23 10 C23,10 35,22 35,22 C35,22 35,32 35,32 C35,32 10,57 10,57"
                    />
                </g>
                <g transform="translate(58.25, 54.5) translate(-21.75, -38)">
                    <path
                        class="path"
                        d="M19 10 C19,10 33.5,24.5 33.5,24.5 C33.5,24.5 33.5,42.5 33.5,42.5 C33.5,42.5 10,66 10,66"
                    />
                </g>
                <g transform="translate(68, 52.5) translate(-21, -42.5)">
                    <path
                        class="path"
                        d="M15 10 C15,10 32,27 32,27 C32,27 32,53 32,53 C32,53 10,75 10,75"
                    />
                </g>
                <g transform="translate(51.5, 43.5) translate(-22.5, -33.5)">
                    <path
                        class="path"
                        d="M22 57 C22,57 10,45 10,45 C10,45 10,35 10,35 C10,35 35,10 35,10"
                    />
                </g>
                <g transform="translate(41.75, 45.5) translate(-21.75, -38)">
                    <path
                        class="path"
                        d="M24.5 66 C24.5,66 10,51.5 10,51.5 C10,51.5 10,33.5 10,33.5 C10,33.5 33.5,10 33.5,10"
                    />
                </g>
                <g transform="translate(32, 47.5) translate(-21, -42.5)">
                    <path
                        class="path"
                        d="M27 75 C27,75 10,58 10,58 C10,58 10,32 10,32 C10,32 32,10 32,10"
                    />
                </g>
            </g>
        </mask>

        <style>
            .path {
                stroke-dasharray: 100;
                stroke-dashoffset: 100;
                animation: drawLine 8s cubic-bezier(0.4, 0, 0.2, 1) infinite;
            }

            @keyframes drawLine {
                0%,
                5% {
                    stroke-dashoffset: 100;
                }
                30%,
                33% {
                    stroke-dashoffset: 0;
                }
                48%,
                52% {
                    stroke-dashoffset: -100;
                }
                67%,
                70% {
                    stroke-dashoffset: 0;
                }
                95%,
                100% {
                    stroke-dashoffset: 100;
                }
            }

            /* Staggered delays with smooth overlap */
            .path:nth-child(1) {
                animation-delay: 0s;
            }
            .path:nth-child(2) {
                animation-delay: 0.3s;
            }
            .path:nth-child(3) {
                animation-delay: 0.6s;
            }
            .path:nth-child(4) {
                animation-delay: 0.9s;
            }
            .path:nth-child(5) {
                animation-delay: 1.2s;
            }
            .path:nth-child(6) {
                animation-delay: 1.5s;
            }

            /* Slightly different timing functions for each path */
            .path:nth-child(1) {
                animation-timing-function: cubic-bezier(0.4, 0, 0.2, 1);
            }
            .path:nth-child(2) {
                animation-timing-function: cubic-bezier(0.35, 0, 0.25, 1);
            }
            .path:nth-child(3) {
                animation-timing-function: cubic-bezier(0.3, 0, 0.3, 1);
            }
            .path:nth-child(4) {
                animation-timing-function: cubic-bezier(0.35, 0, 0.25, 1);
            }
            .path:nth-child(5) {
                animation-timing-function: cubic-bezier(0.4, 0, 0.2, 1);
            }
            .path:nth-child(6) {
                animation-timing-function: cubic-bezier(0.3, 0, 0.3, 1);
            }
        </style>
    </defs>

    <!-- White background -->
    <rect width="100" height="100" fill="white" />

    <!-- Gradient rectangle masked by the lines -->
    <g clip-path="url(#centerClip)">
        <rect
            width="100"
            height="100"
            fill="url(#lineGradient)"
            mask="url(#lineMask)"
        />
    </g>
</svg>
